<svg width="985" height="456" viewBox="0 0 985 456" fill="none" xmlns="http://www.w3.org/2000/svg">
<path d="M954.457 22.6468C950.759 14.6506 954.357 5.15521 962.353 1.45699C970.349 -2.24124 979.845 1.357 983.543 9.35317C987.241 17.3493 983.643 26.8448 975.647 30.543C967.651 34.2413 958.155 30.643 954.457 22.6468ZM958.855 20.6477C961.454 26.2451 968.05 28.7439 973.748 26.1451C979.345 23.5464 981.844 16.9495 979.245 11.2523C976.646 5.55501 970.049 3.15616 964.352 5.75491C958.755 8.35367 956.256 15.0504 958.855 20.6477Z" fill="url(#paint0_linear)"/>
<path d="M614.909 450.154C612.602 445.157 614.846 439.222 619.834 436.911C624.821 434.599 630.743 436.848 633.05 441.846C635.356 446.843 633.112 452.778 628.125 455.089C623.138 457.401 617.215 455.152 614.909 450.154ZM617.652 448.905C619.272 452.403 623.387 453.965 626.94 452.341C630.431 450.716 631.99 446.593 630.369 443.033C628.748 439.472 624.634 437.973 621.08 439.597C617.589 441.221 616.031 445.407 617.652 448.905Z" fill="url(#paint1_linear)"/>
<path d="M13.6983 294.533L13.6231 288.024C13.6558 287.775 13.8548 287.548 14.1152 287.498L20.639 287.427C20.8885 287.459 21.0875 287.232 21.1311 286.9L21.1011 283.267C21.1338 283.018 20.9061 282.82 20.5734 282.776L14.0496 282.847C13.8001 282.814 13.5724 282.615 13.522 282.356L13.4468 275.847C13.4795 275.598 13.2518 275.399 12.9191 275.355L9.27751 275.383C9.02801 275.35 8.82896 275.577 8.78535 275.909L8.86058 282.418C8.82787 282.667 8.62882 282.894 8.36842 282.944L1.84462 283.015C1.59512 282.982 1.39607 283.21 1.35245 283.541L1.38255 287.175C1.34984 287.424 1.57754 287.622 1.91021 287.666L8.43401 287.595C8.68351 287.628 8.91121 287.826 8.96166 288.086L9.03685 294.595C9.00414 294.844 9.23184 295.043 9.56451 295.086L13.2061 295.059C13.4665 295.008 13.6655 294.781 13.6983 294.533Z" fill="#FDD08D"/>
<defs>
<linearGradient id="paint0_linear" x1="962.573" y1="1.38582" x2="975.514" y2="30.6497" gradientUnits="userSpaceOnUse">
<stop stop-color="#BFF0DD"/>
<stop offset="1" stop-color="#57D2A3"/>
</linearGradient>
<linearGradient id="paint1_linear" x1="619.971" y1="436.866" x2="628.07" y2="455.144" gradientUnits="userSpaceOnUse">
<stop stop-color="#BFF0DD"/>
<stop offset="1" stop-color="#57D2A3"/>
</linearGradient>
</defs>
</svg>
