<svg width="430" height="403" viewBox="0 0 430 403" fill="none" xmlns="http://www.w3.org/2000/svg">
<path d="M410.909 397.154C408.602 392.157 410.846 386.222 415.834 383.911C420.821 381.599 426.743 383.848 429.05 388.846C431.356 393.843 429.112 399.778 424.125 402.089C419.138 404.401 413.215 402.152 410.909 397.154ZM413.652 395.905C415.272 399.403 419.387 400.965 422.94 399.341C426.431 397.716 427.99 393.593 426.369 390.033C424.748 386.472 420.634 384.973 417.08 386.597C413.589 388.221 412.031 392.407 413.652 395.905Z" fill="url(#paint0_linear)"/>
<path d="M17.8252 37.7668L24.0327 29.2006C24.3165 28.9075 24.7962 28.8041 25.1847 28.9909L33.7663 35.2183C34.0601 35.5028 34.5398 35.3994 34.9182 35.0086L38.3988 30.2384C38.6826 29.9453 38.578 29.4654 38.1863 29.0861L29.6046 22.8586C29.3108 22.5741 29.2062 22.0942 29.3921 21.7063L35.5996 13.14C35.8834 12.8469 35.7788 12.367 35.3871 11.9877L30.6082 8.49602C30.3144 8.21152 29.8347 8.31495 29.4563 8.70576L23.2488 17.272C22.965 17.5651 22.4853 17.6685 22.0969 17.4817L13.5152 11.2542C13.2214 10.9697 12.7417 11.0732 12.3632 11.464L8.88268 16.2341C8.59886 16.5272 8.70346 17.0071 9.0952 17.3865L17.6769 23.614C17.9707 23.8985 18.0753 24.3784 17.8894 24.7663L11.6819 33.3325C11.3981 33.6256 11.5027 34.1055 11.8944 34.4849L16.6732 37.9765C17.0616 38.1633 17.5413 38.0599 17.8252 37.7668Z" fill="#FDD08D"/>
<defs>
<linearGradient id="paint0_linear" x1="415.971" y1="383.866" x2="424.07" y2="402.144" gradientUnits="userSpaceOnUse">
<stop stop-color="#BFF0DD"/>
<stop offset="1" stop-color="#57D2A3"/>
</linearGradient>
</defs>
</svg>
