<svg width="1161" height="409" viewBox="0 0 1161 409" fill="none" xmlns="http://www.w3.org/2000/svg">
<path d="M0.908711 62.1542C-1.39785 57.1566 0.846368 51.222 5.83353 48.9106C10.8207 46.5992 16.743 48.8481 19.0495 53.8457C21.3561 58.8433 19.1119 64.778 14.1247 67.0894C9.13753 69.4008 3.21528 67.1518 0.908711 62.1542ZM3.65165 60.9048C5.27248 64.4032 9.3869 65.9649 12.9403 64.3407C16.4313 62.7165 17.9898 58.5935 16.3689 55.0327C14.7481 51.4719 10.6337 49.9726 7.08033 51.5968C3.58931 53.221 2.03082 57.4065 3.65165 60.9048Z" fill="url(#paint0_linear)"/>
<path d="M384.194 405.494L385.577 399.133C385.664 398.898 385.909 398.721 386.174 398.731L392.548 400.121C392.784 400.209 393.029 400.032 393.146 399.719L393.929 396.171C394.017 395.935 393.84 395.691 393.525 395.574L387.151 394.183C386.915 394.095 386.738 393.851 386.747 393.586L388.13 387.226C388.217 386.99 388.04 386.746 387.725 386.629L384.17 385.841C383.934 385.753 383.689 385.93 383.573 386.244L382.189 392.604C382.102 392.839 381.857 393.016 381.592 393.007L375.218 391.616C374.982 391.528 374.737 391.705 374.62 392.019L373.837 395.567C373.749 395.802 373.927 396.047 374.241 396.164L380.615 397.554C380.851 397.642 381.029 397.887 381.02 398.151L379.636 404.512C379.549 404.747 379.726 404.992 380.041 405.109L383.596 405.897C383.861 405.906 384.106 405.729 384.194 405.494Z" fill="#FDD08D"/>
<path d="M1152.92 16.7979L1153.09 11.5932C1153.13 11.3954 1153.29 11.2209 1153.5 11.1899L1158.72 11.361C1158.92 11.396 1159.08 11.2215 1159.13 10.9577L1159.23 8.05288C1159.27 7.85509 1159.09 7.6883 1158.83 7.64174L1153.61 7.47056C1153.41 7.43563 1153.24 7.26885 1153.21 7.05942L1153.37 1.85471C1153.41 1.65692 1153.23 1.49013 1152.97 1.44356L1150.06 1.33856C1149.86 1.30363 1149.69 1.47814 1149.65 1.74186L1149.48 6.94657C1149.44 7.14436 1149.28 7.31887 1149.07 7.34988L1143.85 7.17871C1143.65 7.14378 1143.49 7.31829 1143.44 7.58201L1143.34 10.4869C1143.3 10.6847 1143.48 10.8515 1143.74 10.898L1148.96 11.0692C1149.16 11.1041 1149.33 11.2709 1149.36 11.4803L1149.2 16.685C1149.16 16.8828 1149.34 17.0496 1149.6 17.0962L1152.51 17.2012C1152.72 17.1702 1152.89 16.9957 1152.92 16.7979Z" fill="#FDD08D"/>
<defs>
<linearGradient id="paint0_linear" x1="5.97093" y1="48.8661" x2="14.0704" y2="67.1436" gradientUnits="userSpaceOnUse">
<stop stop-color="#BFF0DD"/>
<stop offset="1" stop-color="#57D2A3"/>
</linearGradient>
</defs>
</svg>
