<svg width="417" height="523" viewBox="0 0 417 523" fill="none" xmlns="http://www.w3.org/2000/svg">
<path d="M376.912 29.7239C372.058 19.2289 376.781 6.76622 387.276 1.91229C397.771 -2.94163 410.234 1.78106 415.088 12.276C419.942 22.771 415.219 35.2338 404.724 40.0877C394.229 44.9416 381.766 40.2189 376.912 29.7239ZM382.685 27.1002C386.095 34.4466 394.754 37.7263 402.231 34.3154C409.578 30.9046 412.858 22.2463 409.447 14.7686C406.036 7.29095 397.377 4.14246 389.9 7.55333C382.553 10.9642 379.274 19.7537 382.685 27.1002Z" fill="url(#paint0_linear)"/>
<path d="M21.8167 519.843L21.8213 509.546C21.8777 509.152 22.1969 508.797 22.6098 508.723L32.9311 508.734C33.3252 508.791 33.6443 508.435 33.7196 507.911L33.741 502.163C33.7974 501.77 33.441 501.451 32.9156 501.376L22.5942 501.364C22.2002 501.308 21.8438 500.989 21.7689 500.577L21.7734 490.279C21.8299 489.886 21.4735 489.568 20.9481 489.492L15.1869 489.467C14.7928 489.41 14.4736 489.766 14.3983 490.29L14.3939 500.588C14.3374 500.981 14.0182 501.336 13.6053 501.411L3.28394 501.399C2.88988 501.343 2.5707 501.698 2.49541 502.222L2.47407 507.97C2.4176 508.363 2.77403 508.682 3.29945 508.757L13.6208 508.769C14.0149 508.825 14.3713 509.144 14.4462 509.556L14.4416 519.854C14.3851 520.247 14.7416 520.566 15.267 520.641L21.0282 520.666C21.441 520.592 21.7602 520.236 21.8167 519.843Z" fill="#FDD08D"/>
<defs>
<linearGradient id="paint0_linear" x1="387.565" y1="1.81889" x2="404.55" y2="40.2278" gradientUnits="userSpaceOnUse">
<stop stop-color="#BFF0DD"/>
<stop offset="1" stop-color="#57D2A3"/>
</linearGradient>
</defs>
</svg>
